<svg width="24" height="24" viewBox="0 0 24 24" fill="none" xmlns="http://www.w3.org/2000/svg">
<path d="M15.286 4C13.1821 4 11.4766 5.79086 11.4766 8C11.4766 8.33382 11.5156 8.65809 11.5889 8.96808C9.3 8.96808 5.7 8.44444 3 4.88889C3 13.7778 6.6 16.2963 8.4 16.4444C7.05 17.7778 4.9465 18.7647 3 18.9503C3.83744 19.7106 6.46043 19.9669 7.66725 20C13.9081 20 18.9805 14.7471 19.0934 8.22229C20.2903 7.44391 20.8588 5.33377 21 4.88889C20.4169 5.50119 19.2 5.77778 18.2303 5.46181C17.5317 4.56927 16.4721 4 15.286 4Z" stroke="white" stroke-width="1.5" stroke-linejoin="round"/>
</svg>
